# xmcd
#
# Track frame offsets:
#	150
#	19587
#	36623
#	52735
#	66698
#	85098
#	102238
#	121420
#	143295
#	162638
#	180320
#
# Disc length: 2720 seconds
#
# Revision: 6
# Processed by: cddbd v1.5.2PL0 Copyright (c) Steve Scherf et al.
# Submitted via: EZCDAudioConverter 6.0.8.1
#
DISCID=8e0a9e0b
DTITLE=Vince Gill - When Love Finds You
DYEAR=1994
DGENRE=Country
TTITLE0=Whenever You Come Around
TTITLE1=You Better Think Twice
TTITLE2=A Real Lady's Man
TTITLE3=What The Cowgirls Do
TTITLE4=When Love Finds You
TTITLE5=If There's Anything I Can Do
TTITLE6=South Side Of Dixie
TTITLE7=Maybe Tonight
TTITLE8=Which Bridge To Cross (Which Bridge To Burn)
TTITLE9=If I Had My Way
TTITLE10=Go Rest High On That Mountain
EXTD=
EXTT0=
EXTT1=
EXTT2=
EXTT3=
EXTT4=
EXTT5=
EXTT6=
EXTT7=
EXTT8=
EXTT9=
EXTT10=
PLAYORDER=
